<svg xmlns="http://www.w3.org/2000/svg" xmlns:xlink="http://www.w3.org/1999/xlink" width="102.912" height="64" viewBox="0 0 102.912 64">
  <defs>
    <clipPath id="clip-path">
      <rect id="Rectangle_6433" data-name="Rectangle 6433" width="79.768" height="52" fill="none"/>
    </clipPath>
  </defs>
  <g id="Group_6598" data-name="Group 6598" transform="translate(-22.664 -7.754)">
    <g id="Group_337" data-name="Group 337" transform="translate(22.664 63.754)">
      <path id="Path_308" data-name="Path 308" d="M141.136,164.143c0-2.028-.982-3.363-2.845-3.363s-2.843,1.336-2.843,3.363.991,3.365,2.843,3.365,2.845-1.338,2.845-3.365m-6.757,0a3.913,3.913,0,1,1,3.912,4,3.805,3.805,0,0,1-3.912-4" transform="translate(-96.425 -160.142)" fill="#3f281e"/>
      <path id="Path_309" data-name="Path 309" d="M295.967,160.663h5.765v.635H297.02v2.773h4.374v.6H297.02V167.7h4.712v.636h-5.765Z" transform="translate(-206.996 -160.499)" fill="#3f281e"/>
      <path id="Path_310" data-name="Path 310" d="M323.182,160.663h1.052V167.7h4.3v.636h-5.349Z" transform="translate(-225.619 -160.499)" fill="#3f281e"/>
      <path id="Path_311" data-name="Path 311" d="M14.164,160.663h1.085l1.44,6.1h.022l2.373-6.1h1.029l2.381,6.1h.024l1.431-6.1h.723l-1.8,7.671h-.834l-2.608-6.663h-.022l-2.618,6.663h-.834Z" transform="translate(-14.164 -160.499)" fill="#3f281e"/>
      <path id="Path_312" data-name="Path 312" d="M54.943,160.663h5.765v.635H56v2.773H60.37v.6H56V167.7h4.713v.636H54.943Z" transform="translate(-42.069 -160.499)" fill="#3f281e"/>
      <path id="Path_313" data-name="Path 313" d="M82.158,160.663H83.21V167.7h4.3v.636H82.158Z" transform="translate(-60.691 -160.499)" fill="#3f281e"/>
      <path id="Path_314" data-name="Path 314" d="M103.191,164.143a3.823,3.823,0,0,1,3.911-4,3.489,3.489,0,0,1,3.606,2.587l-.68.165a2.828,2.828,0,0,0-2.925-2.114c-1.819,0-2.844,1.336-2.844,3.363s1.025,3.365,2.844,3.365a2.852,2.852,0,0,0,2.937-2.3l.68.176a3.5,3.5,0,0,1-3.617,2.761,3.823,3.823,0,0,1-3.911-4" transform="translate(-75.083 -160.142)" fill="#3f281e"/>
      <path id="Path_315" data-name="Path 315" d="M167.908,160.663h1.3l3.176,6.236h.022l3.164-6.236h1.292v7.671h-1.051v-6.707h-.021l-3.431,6.707h-.3l-3.429-6.707h-.023v6.707h-.7Z" transform="translate(-119.368 -160.499)" fill="#3f281e"/>
      <path id="Path_316" data-name="Path 316" d="M207.539,160.663h1.054v3.419h5.227v-3.419h1.051v7.671H213.82V164.7h-5.227v3.638h-1.054Z" transform="translate(-146.487 -160.499)" fill="#3f281e"/>
      <path id="Path_317" data-name="Path 317" d="M246.057,164.143c0-2.028-.982-3.363-2.843-3.363s-2.843,1.336-2.843,3.363.991,3.365,2.843,3.365,2.843-1.338,2.843-3.365m-6.756,0a3.913,3.913,0,1,1,3.912,4,3.8,3.8,0,0,1-3.912-4" transform="translate(-168.221 -160.142)" fill="#3f281e"/>
      <path id="Path_318" data-name="Path 318" d="M270.753,161.3h-2.936v-.635h6.926v.635h-2.937v7.036h-1.053Z" transform="translate(-187.733 -160.499)" fill="#3f281e"/>
    </g>
    <g id="Group_6771" data-name="Group 6771" transform="translate(25.975 2.933)">
      <g id="Group_6770" data-name="Group 6770" transform="translate(8.689 4.821)" clip-path="url(#clip-path)">
        <path id="Path_12031" data-name="Path 12031" d="M46.505,8.284c-1.985,3.616-5.29,9.637-1.736,16.142-.01.028-.019.055-.029.082a81.054,81.054,0,0,1-6.792,10.8c-2.253,3.049-4.045,5.709-5.467,8.026-.562-3.109-.962-6.556-1.37-10.068C30.357,26.782,29.579,20.075,27.664,15c-2.214-5.867-5.678-8.719-10.592-8.719H8.689v.038a8.384,8.384,0,0,1,5.06,6.025c.962,3.3,1.278,7.918,1.615,12.8.716,10.417,1.527,22.223,8.608,28.078,2.909,2.405,6.579,3.593,11.15,3.593a30.99,30.99,0,0,0,3.716-.236l.184-.022.117-.14c3-3.531,5.314-8.926,6.889-16.036A112.333,112.333,0,0,0,48.3,16.434V4.821H48.26c-.444,1.018-1.4,2.811-1.755,3.463m-.691,3.374h.035c-.642,3.018-.945,6.6.223,8.841-.172.559-.35,1.127-.526,1.681a.487.487,0,0,0-.055.112c-.095.3-.194.6-.294.9-1.99-4.311-.877-8.318.617-11.532M43.805,29.273h.035c-.489,1.455-1.027,2.872-1.617,4.241-1.98,4.59-3.538,8.523-4.789,11.683-.972,2.453-1.8,4.55-2.563,6.279a19.985,19.985,0,0,1-1.09-2.729A128.257,128.257,0,0,1,40.894,34.88a62.063,62.063,0,0,0,2.912-5.61Zm-5.1,6.593q1.362-1.845,2.592-3.7v0h.036q-.6,1.128-1.246,2.237a131.343,131.343,0,0,0-6.717,12.949c-.227-.836-.432-1.715-.62-2.629,1.6-2.7,3.6-5.678,5.954-8.86M32.785,48.685c-.3.7-.573,1.351-.822,1.956a18.949,18.949,0,0,1-1.17-2.379q.572-1.124,1.26-2.337.329,1.448.733,2.76m-2.6-15.31c.455,3.918.9,7.755,1.578,11.163q-.8,1.353-1.42,2.538c-1.67-4.7-2.393-10.755-3.1-16.7-.736-6.159-1.431-11.977-3.1-16.448-1.145-3.066-2.675-5.191-4.626-6.408,7.9,2.014,9.308,14.119,10.672,25.86M26.3,30.483c.758,6.348,1.531,12.809,3.452,17.73-.355.716-.663,1.383-.929,2a19.624,19.624,0,0,1-1.738-3.349c-2.146-5.221-2.9-12.048-3.622-18.649-1-9.062-1.95-17.719-6.545-20.774C23.745,9.082,24.992,19.5,26.3,30.483m1.149,23.854a13.673,13.673,0,0,1-2.884-1.831C17.8,46.907,17,35.314,16.3,25.086c-.551-8.012-1.042-15.155-4.426-17.757,5.336,1.04,6.119,9.532,7.016,19.269.672,7.289,1.366,14.828,4.017,20.65a16.757,16.757,0,0,0,4.726,6.341c-.07.264-.129.513-.179.748m-3.693-7.478c-2.585-5.678-3.272-13.136-3.937-20.348-.486-5.278-.946-10.263-2.148-13.948a9.811,9.811,0,0,0-3.345-5.194c2.531.532,4.334,2.506,5.61,6.1,1.393,3.928,1.977,9.235,2.595,14.854.733,6.666,1.491,13.559,3.687,18.9a19.73,19.73,0,0,0,2.184,4.023q-.283.73-.487,1.366a15.961,15.961,0,0,1-4.16-5.755m6.3,8.418a15.519,15.519,0,0,1-1.729-.561q.051-.259.115-.528a13.182,13.182,0,0,0,1.673.96l-.06.129m.434-1a12.04,12.04,0,0,1-1.316-.735q-.238-.154-.468-.319.163-.533.371-1.1a13.02,13.02,0,0,0,1.625,1.636c-.073.182-.144.357-.212.521m.579-1.437a12.341,12.341,0,0,1-1.6-1.722q.343-.839.772-1.745A17.913,17.913,0,0,0,31.52,51.73q-.226.564-.425,1.064l-.021.05m.28,1.812q.062-.147.125-.3a11.5,11.5,0,0,0,1.205.75,13.767,13.767,0,0,1-1.33-.446m2.073-.225a10.6,10.6,0,0,1-1.589-.97l.128-.32.2-.5a11.524,11.524,0,0,0,1.406,1.53c-.048.088-.1.174-.144.259m.6-1.136A11.236,11.236,0,0,1,32.582,51.6c.2-.495.417-1.022.654-1.586a17.971,17.971,0,0,0,1.148,2.532q-.181.388-.359.745m.736.631c.07-.139.14-.28.211-.425a9.969,9.969,0,0,0,.929,1.173,8.721,8.721,0,0,1-1.14-.748m.677-1.418c.83-1.826,1.738-4.117,2.866-6.966,1.25-3.154,2.8-7.08,4.778-11.657a57.626,57.626,0,0,0,2.656-7.634v0h.036c-.382,2.228-.85,4.345-1.411,6.377-2.825,10.235-5.07,17.249-7.707,21.48a9.452,9.452,0,0,1-1.219-1.6m9.672-12.324c-1.5,6.781-3.677,11.948-6.468,15.366a6.231,6.231,0,0,1-1.284-.8C40.1,50.43,42.392,43.3,45.269,32.88a69.8,69.8,0,0,0,1.9-9.587V23.3H47.2a100.341,100.341,0,0,1-2.091,16.886M47.36,15.6a21.988,21.988,0,0,1-.851,3.443c-.744-2.679.026-6.688.814-9.418h.037Z" transform="translate(-8.689 -4.821)" fill="#df2808"/>
        <path id="Path_12032" data-name="Path 12032" d="M102.521,6.284c-4.914,0-8.378,2.852-10.592,8.719-1.914,5.073-2.693,11.78-3.447,18.265-.408,3.512-.809,6.958-1.371,10.068-1.421-2.318-3.213-4.978-5.466-8.026a81.129,81.129,0,0,1-6.792-10.8l-.028-.082c3.554-6.5.248-12.526-1.737-16.142-.358-.652-1.31-2.445-1.754-3.463H71.3V16.434a112.292,112.292,0,0,0,2.27,23.953c1.574,7.109,3.892,12.5,6.889,16.036l.117.14.183.022a31.007,31.007,0,0,0,3.716.236c4.572,0,8.242-1.187,11.151-3.593,7.081-5.855,7.892-17.662,8.608-28.078.335-4.886.653-9.5,1.614-12.8a8.387,8.387,0,0,1,5.06-6.025V6.284Zm.15,1.162c-4.6,3.055-5.548,11.712-6.545,20.774-.725,6.6-1.476,13.428-3.622,18.649a19.623,19.623,0,0,1-1.738,3.349c-.266-.621-.573-1.288-.928-2,1.921-4.922,2.693-11.382,3.452-17.73C94.6,19.5,95.849,9.082,102.671,7.445M89.414,33.375c1.364-11.741,2.772-23.846,10.672-25.86-1.951,1.217-3.481,3.343-4.626,6.408-1.67,4.471-2.366,10.289-3.1,16.448-.711,5.949-1.434,12-3.1,16.7q-.626-1.187-1.42-2.538c.677-3.407,1.124-7.245,1.579-11.163M87.541,45.925q.688,1.211,1.26,2.337a18.775,18.775,0,0,1-1.17,2.379q-.372-.907-.822-1.956c.271-.873.514-1.8.733-2.76M78.3,32.169v0q1.231,1.853,2.592,3.7c2.352,3.182,4.349,6.16,5.953,8.86-.187.914-.392,1.793-.619,2.629a131.481,131.481,0,0,0-6.717-12.949q-.649-1.108-1.246-2.237Zm-2.511-2.9v0A62.059,62.059,0,0,0,78.7,34.88a128.162,128.162,0,0,1,7.114,13.867,19.9,19.9,0,0,1-1.091,2.729c-.76-1.729-1.591-3.826-2.563-6.279-1.252-3.16-2.81-7.093-4.789-11.683-.59-1.368-1.128-2.785-1.617-4.241ZM73.744,11.658h.036c1.494,3.214,2.606,7.221.616,11.532-.1-.3-.2-.6-.294-.9a.487.487,0,0,0-.055-.112c-.176-.554-.354-1.121-.526-1.681,1.167-2.243.864-5.822.222-8.841M72.234,9.629h.037c.788,2.73,1.557,6.738.814,9.418a21.986,21.986,0,0,1-.851-3.443ZM80.949,55.55c-2.791-3.418-4.966-8.585-6.468-15.366A100.341,100.341,0,0,1,72.39,23.3h.036v-.005a69.9,69.9,0,0,0,1.9,9.587C77.2,43.3,79.492,50.43,82.233,54.754a6.214,6.214,0,0,1-1.284.8m-5.72-22.92c-.561-2.031-1.029-4.149-1.411-6.377h.036v0a57.713,57.713,0,0,0,2.655,7.634c1.974,4.577,3.529,8.5,4.778,11.657,1.129,2.849,2.037,5.14,2.866,6.966a9.45,9.45,0,0,1-1.218,1.6c-2.637-4.232-4.882-11.246-7.707-21.48m8.463,22.044a10.106,10.106,0,0,0,.929-1.173c.071.145.141.286.211.425a8.72,8.72,0,0,1-1.14.748m1.517-2.124a17.969,17.969,0,0,0,1.148-2.532c.237.564.454,1.092.655,1.586a11.24,11.24,0,0,1-1.445,1.691q-.177-.357-.358-.745m.813,1.623a11.485,11.485,0,0,0,1.407-1.53l.2.5.128.32a10.6,10.6,0,0,1-1.59.97q-.071-.127-.144-.259m.886.929a11.5,11.5,0,0,0,1.206-.75q.064.157.124.3a13.651,13.651,0,0,1-1.33.446M88.5,52.794q-.2-.5-.425-1.064a17.911,17.911,0,0,0,1.275-2.354q.429.906.772,1.745a12.384,12.384,0,0,1-1.6,1.722l-.02-.05m.387.967a13.02,13.02,0,0,0,1.625-1.636q.209.57.371,1.1-.231.165-.468.319a11.97,11.97,0,0,1-1.315.735c-.068-.164-.139-.339-.213-.521m.647,1.516c-.02-.042-.04-.084-.06-.128a13.273,13.273,0,0,0,1.673-.96q.064.269.115.528a15.471,15.471,0,0,1-1.729.561m1.656-4.029a19.73,19.73,0,0,0,2.184-4.023c2.2-5.344,2.954-12.237,3.686-18.9.618-5.619,1.2-10.927,2.6-14.854,1.275-3.593,3.078-5.567,5.609-6.1a9.8,9.8,0,0,0-3.345,5.194c-1.2,3.685-1.661,8.67-2.148,13.947-.664,7.212-1.352,14.67-3.936,20.348a15.97,15.97,0,0,1-4.16,5.755c-.137-.424-.3-.879-.486-1.366m12.107-26.162c-.7,10.228-1.5,21.821-8.27,27.42a13.673,13.673,0,0,1-2.884,1.831q-.075-.353-.18-.748a16.758,16.758,0,0,0,4.727-6.341c2.65-5.822,3.345-13.361,4.016-20.65.9-9.737,1.68-18.229,7.016-19.269-3.384,2.6-3.876,9.746-4.426,17.757" transform="translate(-31.136 -4.821)" fill="#df2808"/>
      </g>
    </g>
  </g>
</svg>
